PathFileType  4	(X/Y/Z) C:\Users\antoi\Documents\MyRepositories\mobilecap\ResultsAnalysis
DataRate	CameraRate	NumFrames	NumMarkers	Units	OrigDataRate	OrigDataStartFrame	OrigNumFrames
100.0	100.0	6	51	mm	100.0	184	294
Frame#	Time	r_knee			r_shank_antsup			r_ankle			r_calc			r_5meta			r_toe			L_knee			L_shank_antsup			L_ankle			L_calc			L_5meta			L_toe			r_sh2			r_sh3			r_sh4			L_sh2			L_sh3			r_thigh1			r_thigh2			r_thigh3			r_thigh4			r_thigh5			L_thigh1			L_thigh2			L_thigh3			L_thigh4			r.ASIS			r.PSIS			L.ASIS			L.PSIS			C7			R_Shoulder			L_Shoulder			R_Sternum			L_Sternum			R_humerus			R_elbow_med			R_elbow_lat			R_forearm			R_wrist_radius			R_wrist_ulna			L_humerus			L_elbow_med			L_elbow_lat			L_forearm			L_wrist_radius			L_wrist_ulna			R_HJC			L_HJC			R_HJC_reg			L_HJC_reg			
		X1	Y1	Z1	X2	Y2	Z2	X3	Y3	Z3	X4	Y4	Z4	X5	Y5	Z5	X6	Y6	Z6	X7	Y7	Z7	X8	Y8	Z8	X9	Y9	Z9	X10	Y10	Z10	X11	Y11	Z11	X12	Y12	Z12	X13	Y13	Z13	X14	Y14	Z14	X15	Y15	Z15	X16	Y16	Z16	X17	Y17	Z17	X18	Y18	Z18	X19	Y19	Z19	X20	Y20	Z20	X21	Y21	Z21	X22	Y22	Z22	X23	Y23	Z23	X24	Y24	Z24	X25	Y25	Z25	X26	Y26	Z26	X27	Y27	Z27	X28	Y28	Z28	X29	Y29	Z29	X30	Y30	Z30	X31	Y31	Z31	X32	Y32	Z32	X33	Y33	Z33	X34	Y34	Z34	X35	Y35	Z35	X36	Y36	Z36	X37	Y37	Z37	X38	Y38	Z38	X39	Y39	Z39	X40	Y40	Z40	X41	Y41	Z41	X42	Y42	Z42	X43	Y43	Z43	X44	Y44	Z44	X45	Y45	Z45	X46	Y46	Z46	X47	Y47	Z47	X48	Y48	Z48	X49	Y49	Z49	X50	Y50	Z50	X51	Y51	Z51	

184	1.83000000	-35.26467	393.12962	-387.24707	-28.77037	280.89031	-393.10071	-237.49174	98.14799	-406.08091	-300.04887	59.13306	-455.37332	-155.38331	42.28853	-345.88897	-108.51438	54.51199	-382.45088	-37.63648	401.77868	-825.65204	-19.52848	286.67158	-796.12891	-246.63887	106.13303	-826.23297	-305.73346	67.70005	-781.60103	-156.98795	39.37016	-876.24318	-106.59306	50.63694	-829.63577	-99.45472	192.41483	-404.43835	-81.55380	316.64748	-351.95956	-160.43919	239.09264	-370.62920	-61.20375	343.23558	-851.83069	-137.47370	250.62803	-869.39960	-247.75376	594.84745	-423.02457	-153.86380	552.06245	-412.93481	-153.79573	500.19664	-367.30899	-295.86364	500.27358	-384.16075	-191.03718	458.53448	-367.95361	-253.22690	578.78459	-801.30295	-125.53444	533.39417	-803.38592	-306.81505	482.78426	-830.50400	-172.19976	438.87035	-838.89850	-232.31766	591.88900	-484.54757	-387.65012	694.20937	-549.57266	-234.45969	588.86232	-725.78782	-391.22476	698.89124	-663.75894	-123.12774	1041.43011	-591.76457	-70.85011	975.54494	-440.65159	-64.82555	979.70247	-750.37951	-25.55427	935.78126	-573.23179	-23.14381	936.66955	-617.86421	-92.63668	856.34514	-380.42206	-205.44120	674.80735	-407.44722	-182.78057	688.10220	-337.29781	-169.30698	563.91572	-302.40627	-171.90417	458.77012	-290.57082	-205.71272	463.10456	-275.37139	-88.89476	838.73738	-808.29471	-190.97283	660.25610	-777.63158	-168.65743	675.64107	-845.22178	-150.13867	583.28970	-880.36937	-159.43638	448.81565	-893.01052	-188.57406	454.71125	-908.45770	-341.82186	556.32818	-507.00170	-340.92010	550.69183	-696.29067	-322.30638	547.01434	-517.12709	-327.28512	553.53481	-676.15340	
185	1.84000000	-33.16244	392.62641	-387.94643	-27.55629	280.11163	-393.41598	-237.36607	98.69186	-405.67281	-299.96163	59.15352	-455.49729	-155.37448	42.42702	-345.92554	-108.48187	54.62050	-382.49011	-37.28732	400.39739	-823.88892	-19.17523	286.22420	-796.06747	-246.48970	106.39352	-826.28813	-305.67424	68.13953	-781.82301	-156.95683	39.34072	-876.30210	-106.50774	50.46177	-829.65481	-98.94374	191.83643	-404.97918	-80.59246	316.68514	-352.42887	-158.88869	239.01024	-370.37514	-60.71570	342.43782	-851.87920	-136.64683	250.31398	-869.81934	-245.01184	596.14477	-423.87455	-151.84722	553.11754	-413.43964	-151.80898	502.69404	-368.99292	-293.72895	503.27354	-383.78495	-189.41990	459.60099	-368.94825	-250.48442	579.63732	-798.85032	-121.82587	534.77933	-801.38052	-304.18416	484.11682	-829.58610	-169.98162	440.38949	-839.83120	-229.97547	593.27440	-485.43998	-386.30461	696.24635	-549.38563	-233.37824	590.01543	-726.30359	-390.41899	700.23600	-663.83883	-108.03042	1050.15013	-598.73493	-72.47715	980.86331	-442.62193	-66.33042	985.43048	-750.14964	-27.15629	941.87462	-572.99002	-27.82367	939.39013	-612.26528	-84.48062	863.13095	-380.00173	-179.82632	670.23413	-404.14223	-157.36926	687.15970	-334.15286	-130.83265	566.05598	-297.04066	-122.87157	461.12464	-283.63296	-156.60107	462.67758	-267.87035	-79.63619	845.26318	-809.48628	-161.13462	656.18691	-777.83065	-140.76724	674.62868	-845.76677	-109.64355	585.23935	-880.93866	-104.89952	451.93322	-895.26533	-134.78915	452.84016	-909.26926	-339.88263	557.97360	-507.01390	-340.01941	552.01814	-696.29845	-320.39045	549.27027	-517.25425	-326.09575	554.81012	-676.05479	
186	1.85000000	-31.68174	393.29853	-388.24247	-26.47413	279.00032	-394.31648	-237.33373	98.78822	-405.46429	-299.96443	59.06998	-455.49186	-155.42138	42.47979	-345.91117	-108.53932	54.70355	-382.48914	-36.26573	400.44462	-821.97312	-18.32435	286.54439	-796.19839	-246.33975	106.90680	-826.42174	-305.45278	68.70024	-781.98550	-156.88258	39.36836	-876.32460	-106.43564	50.36152	-829.68760	-98.67840	191.16160	-405.48876	-79.65776	316.11453	-353.65124	-157.40605	239.45350	-369.56495	-59.89215	342.75461	-853.27930	-135.69068	250.22842	-870.21405	-242.09440	598.11435	-424.73765	-149.08175	554.70328	-414.07710	-149.20818	504.12028	-370.00226	-291.62948	506.42922	-383.14873	-186.64942	459.89851	-369.89617	-248.52422	582.22142	-797.02886	-119.04208	537.64778	-798.92007	-302.34568	486.87090	-827.39273	-168.40942	442.85665	-837.73487	-227.52069	595.13588	-486.30067	-385.21663	699.11738	-549.39073	-231.70270	592.48370	-725.80683	-389.82322	702.28366	-663.84744	-98.95426	1058.68329	-603.84995	-74.81027	987.96038	-444.36517	-68.35614	992.55854	-749.17966	-29.16265	950.99800	-573.30760	-34.55777	942.16878	-603.81685	-76.05935	872.25866	-380.03906	-152.34250	669.57230	-400.72464	-130.09633	690.34246	-331.09706	-90.22990	573.77391	-292.07472	-71.27179	470.10296	-277.35007	-104.71433	468.82807	-260.72897	-70.31555	854.65889	-810.37928	-130.37511	657.41164	-779.01209	-111.61582	678.84316	-846.47729	-69.55610	593.72426	-882.57085	-49.43565	462.58293	-898.96084	-79.65899	458.65565	-911.08481	-337.97557	560.20736	-507.04058	-338.57063	554.26616	-696.32546	-318.10656	552.89921	-517.16780	-324.46193	557.26772	-675.08747	
187	1.86000000	-31.20562	393.98826	-388.66129	-25.84052	277.36028	-396.04918	-237.36036	98.63283	-405.42499	-300.07036	58.94526	-455.38607	-155.50142	42.41680	-345.87282	-108.66650	54.71682	-382.49241	-34.62807	402.33184	-822.63648	-16.63929	287.22480	-796.34782	-246.23062	107.57933	-826.91461	-305.21955	69.54955	-782.37180	-156.76714	39.44328	-876.37590	-106.37498	50.30277	-829.71564	-98.46308	190.35800	-406.31188	-78.49473	314.16925	-354.98353	-156.65258	239.40494	-369.32780	-58.89078	343.78290	-855.04126	-134.95764	250.29412	-870.15330	-239.14504	600.14235	-425.75787	-145.86823	556.73594	-414.31553	-146.15872	504.33512	-370.32849	-289.26672	509.41429	-382.63185	-183.95549	461.56260	-369.88623	-247.06634	585.74726	-795.79144	-118.40853	540.41298	-798.01170	-301.32215	490.70834	-825.65547	-167.48065	445.96556	-835.43341	-225.65592	598.26044	-486.70657	-384.40473	702.72617	-549.59935	-230.09489	595.85285	-725.01603	-389.47716	705.14015	-663.60544	-114.32080	1061.38419	-599.35916	-77.59970	996.39663	-445.67594	-70.79397	1001.02283	-748.00037	-31.89811	959.92345	-573.93582	-37.08031	950.30165	-603.55787	-67.82229	883.62622	-380.50197	-122.99650	673.52538	-397.53127	-101.64614	698.25888	-327.91999	-48.02426	587.73331	-288.15111	-17.66369	486.82817	-272.24039	-50.37460	482.31972	-254.66840	-60.82968	866.71402	-810.86683	-98.49658	663.72667	-780.74221	-81.72684	688.42843	-847.84786	-31.43522	608.23416	-885.16964	7.21232	480.86115	-902.38390	-22.90329	472.60666	-913.78188	-336.43426	563.44109	-506.82964	-337.16211	557.31612	-696.10655	-316.06738	557.31726	-516.71286	-323.06033	560.64081	-673.84143	
188	1.87000000	-30.82875	392.96076	-390.02552	-25.61481	276.36938	-397.32120	-237.38035	98.58652	-405.29712	-300.15863	58.83676	-455.27173	-155.57161	42.31253	-345.82412	-108.77081	54.68773	-382.47456	-34.10105	404.63111	-824.98480	-15.45139	287.34279	-796.03059	-245.95274	108.03334	-827.56361	-305.17487	70.63997	-783.07802	-156.64726	39.54700	-876.44111	-106.30487	50.26969	-829.73029	-98.17957	189.78564	-407.10583	-77.55889	312.58430	-355.38212	-156.15237	238.68209	-369.65529	-58.15102	344.53885	-855.52373	-134.42072	250.45053	-869.73522	-236.30054	602.47014	-426.40057	-142.90867	558.68554	-414.41605	-143.68410	505.07526	-370.58368	-286.94523	512.59158	-382.24849	-182.28003	464.41716	-369.32592	-245.64499	589.64030	-794.63826	-119.17397	542.71637	-798.38735	-300.43441	495.12714	-824.68849	-166.84546	449.59142	-834.98068	-224.10968	602.86127	-486.25710	-383.77969	706.88551	-549.75357	-228.76456	599.89481	-724.26200	-389.30833	708.70914	-663.20016	-135.33784	1063.38392	-592.61800	-80.81182	1005.83074	-446.77056	-73.90749	1010.71873	-746.86335	-36.10773	968.14907	-574.84166	-36.00703	963.54531	-611.11656	-60.34124	897.25655	-381.16530	-92.99858	682.52343	-394.74121	-72.95298	710.81268	-325.05258	-5.23032	608.43486	-285.56032	37.07011	512.19461	-268.81231	5.72421	503.96215	-250.32444	-51.23221	881.46040	-810.96859	-64.16853	675.70207	-781.20391	-52.10788	702.92945	-849.60256	6.40548	628.91593	-887.62481	64.82150	507.95261	-903.72281	35.58340	495.62288	-916.25571	-335.02406	567.72900	-506.15371	-335.83528	560.95864	-695.40796	-314.23798	562.02610	-515.63719	-321.88500	564.54859	-672.55585	
189	1.88000000	-29.92819	391.28675	-391.91851	-25.37511	276.84155	-397.25641	-237.34610	98.69731	-405.10190	-300.11056	58.78218	-455.26938	-155.58500	42.27149	-345.77860	-108.78605	54.68330	-382.41098	-34.79092	406.06447	-825.79663	-16.09762	287.29772	-795.42071	-245.45300	108.11472	-827.91001	-305.21967	71.44169	-783.48743	-156.55417	39.65283	-876.45596	-106.25015	50.27994	-829.72924	-97.82273	189.79350	-407.37907	-77.01389	312.67780	-355.04384	-155.50543	238.31515	-369.82153	-57.77168	344.97541	-855.02616	-133.87576	250.81108	-869.40071	-233.66378	605.45366	-426.13850	-139.83332	560.21658	-414.93435	-141.94329	506.88059	-370.87584	-284.90816	515.90569	-382.15232	-180.98832	467.00293	-369.13774	-244.15664	593.44558	-793.64931	-119.15712	545.11350	-798.03205	-299.48016	499.48790	-824.00438	-166.22605	452.97986	-834.94657	-222.61813	608.52572	-484.97274	-383.20960	711.51500	-549.53400	-227.53566	604.71647	-723.78487	-389.02148	712.99089	-662.81319	-142.82271	1070.78588	-591.89971	-84.38412	1016.56949	-447.82432	-78.02327	1021.62689	-745.28392	-42.10331	977.55950	-576.13857	-37.93987	976.50612	-615.08018	-53.87728	913.36155	-381.74532	-63.66255	696.46623	-391.87871	-44.92940	727.82375	-322.73635	36.66899	635.83660	-284.20841	91.56796	546.43250	-267.36308	62.23043	534.15927	-248.00246	-41.95195	898.69530	-810.42423	-28.87335	693.65487	-780.21191	-23.55730	721.82970	-850.99837	45.49797	656.26468	-888.86163	121.78723	544.86054	-903.55822	94.55258	528.60792	-917.22678	-333.56761	572.79716	-505.21175	-334.40931	565.28367	-694.43863	-312.61309	566.83473	-514.15043	-320.68989	568.88690	-671.60018	
